<?xml version="1.0" encoding="utf-8"?>
<!-- Generator: Adobe Illustrator 24.0.1, SVG Export Plug-In . SVG Version: 6.00 Build 0)  -->
<svg version="1.1" id="Ebene_1" xmlns="http://www.w3.org/2000/svg" xmlns:xlink="http://www.w3.org/1999/xlink" x="0px" y="0px"
	 viewBox="0 0 90.83 42.27" style="enable-background:new 0 0 90.83 42.27;" xml:space="preserve">
<g>
	<polygon points="18.26,0 0,10.54 0.13,10.76 9.16,5.54 10.93,6.57 8.97,7.7 9.1,7.91 0,13.17 0.13,13.38 9.22,8.13 9.35,8.35 
		11.68,7 13.21,7.88 8.97,10.33 9.1,10.54 0,15.79 0.13,16.01 9.22,10.76 9.35,10.97 13.95,8.31 15.49,9.2 8.98,12.96 9.1,13.17 
		0,18.42 0.13,18.64 9.22,13.38 9.34,13.59 16.22,9.62 17.77,10.51 8.98,15.59 9.1,15.79 0,21.05 0.13,21.26 9.22,16.01 9.34,16.22 
		18.5,10.93 20.05,11.83 8.98,18.22 9.1,18.42 0,23.67 0.13,23.89 9.22,18.64 9.34,18.84 20.77,12.24 22.33,13.14 8.98,20.85 
		9.1,21.05 0,26.3 0.13,26.51 9.22,21.26 9.34,21.46 23.04,13.55 24.61,14.46 8.99,23.48 9.1,23.67 0,28.92 0.13,29.14 9.22,23.89 
		9.33,24.08 25.31,14.86 26.85,15.76 8.97,26.08 9.1,26.3 0,31.55 0.13,31.77 9.22,26.51 9.35,26.73 27.23,16.41 27.23,18.17 
		11.25,27.39 11.37,27.61 2.27,32.86 2.4,33.08 11.5,27.83 11.62,28.04 27.23,19.03 27.23,20.79 13.52,28.71 13.65,28.92 
		4.55,34.18 4.67,34.39 13.77,29.14 13.9,29.36 27.23,21.66 27.23,23.42 15.8,30.02 15.92,30.24 6.82,35.49 6.95,35.71 16.05,30.45 
		16.17,30.67 27.23,24.29 27.23,26.05 18.07,31.33 18.19,31.55 9.1,36.8 9.22,37.02 18.32,31.77 18.44,31.98 27.23,26.91 
		27.23,28.67 20.34,32.65 20.47,32.86 11.37,38.12 11.5,38.33 20.59,33.08 20.72,33.3 27.23,29.54 27.23,31.3 22.62,33.96 
		22.74,34.18 13.65,39.43 13.77,39.65 22.87,34.39 22.99,34.61 27.23,32.16 27.23,33.92 24.89,35.27 25.02,35.49 15.92,40.74 
		16.05,40.96 25.14,35.71 25.27,35.92 27.23,34.79 27.23,36.84 18.19,42.06 18.32,42.27 36.58,31.73 36.58,10.58 	"/>
	<g>
		<path d="M47.25,13.52h-2.76c-0.12-0.54-0.46-0.91-1.18-0.91c-0.54,0-0.94,0.22-0.94,0.63c0,0.37,0.24,0.52,0.75,0.63l1.51,0.37
			c1.57,0.38,2.71,1.06,2.71,2.72c0,1.92-1.58,3.09-4.06,3.09c-1.86,0-4.04-0.74-4.33-3.32h2.76c0.14,0.68,0.72,1.03,1.61,1.03
			c0.69,0,0.99-0.24,0.99-0.59c0-0.23-0.12-0.44-0.72-0.57l-1.55-0.38c-1.82-0.46-2.71-1.25-2.71-2.74c0-1.96,1.57-3.1,3.81-3.1
			C44.6,10.37,47,10.89,47.25,13.52z"/>
		<path d="M53.28,12.96v6.87h-2.75v-6.87h-2.75v-2.38h8.25v2.38H53.28z"/>
		<path d="M65.69,15.36c0,3.04-1.66,4.68-4.46,4.68c-2.8,0-4.46-1.65-4.46-4.68v-4.78h2.78v4.87c0,1.27,0.64,2.03,1.69,2.03
			c1.05,0,1.69-0.76,1.69-2.03v-4.87h2.78V15.36z"/>
		<path d="M70.81,10.58c2.97,0,5.04,1.81,5.04,4.61c0,2.82-2.07,4.64-5.04,4.64h-3.89v-9.26H70.81z M70.81,17.41
			c1.29,0,2.25-0.93,2.25-2.22c0-1.28-0.95-2.19-2.25-2.19h-1.16v4.41H70.81z"/>
		<path d="M79.69,19.83h-2.74v-9.26h2.74V19.83z"/>
		<path d="M90.83,15.21c0,2.74-2.07,4.83-5,4.83c-2.93,0-5-2.1-5-4.83s2.07-4.83,5-4.83C88.76,10.37,90.83,12.47,90.83,15.21z
			 M88.04,15.21c0-1.21-0.91-2.26-2.21-2.26c-1.29,0-2.2,1.05-2.2,2.26s0.91,2.26,2.2,2.26C87.13,17.47,88.04,16.42,88.04,15.21z"/>
		<path d="M49.56,31.73h-2.75v-4.12l-1.7,2.57v0.01h-1.44v-0.04l-1.72-2.57l0.01,4.15h-2.75v-9.26h2.11l3.06,4.31l3.06-4.31h2.11
			V31.73z"/>
		<path d="M59.72,27.25c0,3.04-1.66,4.68-4.46,4.68c-2.8,0-4.46-1.65-4.46-4.68v-4.78h2.78v4.87c0,1.27,0.64,2.03,1.69,2.03
			c1.05,0,1.69-0.76,1.69-2.03v-4.87h2.78V27.25z"/>
		<path d="M65.16,29.21l-1.71,2.52h-3.12l2.99-4.53l0.01-0.01l-2.99-4.71h3.28l1.54,2.52l1.54-2.52h3.28l-2.99,4.71L67,27.2
			l3.01,4.53h-3.13L65.16,29.21z"/>
	</g>
</g>
</svg>
